<svg xmlns="http://www.w3.org/2000/svg" xmlns:xlink="http://www.w3.org/1999/xlink" viewBox="0 0 108 39" fill="#fff" fill-rule="evenodd" stroke="#000" stroke-linecap="round" stroke-linejoin="round"><use xlink:href="#A" x=".5" y=".5"/><symbol id="A" overflow="visible"><g stroke="none" fill="#d77310" fill-rule="nonzero"><path d="M13.326 37.294l-1.496-2.052c-.597-1-.96-2.113-1.193-3.256-.1-.556.04-.728.627-.728h4.793c.586 0 .688.13.576.738-.313 1.78-1.02 3.367-2.235 4.722-.162.182-.293.384-.445.576h-.627zm9.82-15.774c-.03 3.63-.526 6.522-1.82 9.242-.354.748-.445.78-1.163.374-.06-.03-.13-.06-.182-.1-1-.8-2.154-.87-3.377-.84h-7.08c-.586-.01-1.092.1-1.557.455-.243.172-.506.293-.758.445-.83.495-.85.495-1.264-.394-.647-1.385-1.082-2.83-1.395-4.338-.546-2.62-.506-5.238-.152-7.857.222-1.68.667-3.317 1.203-4.924.93-2.8 2.235-5.4 3.782-7.908 1.173-1.9 2.447-3.7 3.863-5.4.354-.425.556-.313.84.04a49.35 49.35 0 0 1 4.854 7.12c1.547 2.78 2.8 5.693 3.5 8.807.435 1.952.8 3.913.718 5.3zm-9.475 6.3h5.572c.344 0 .556-.07.677-.465.506-1.598.728-3.246.8-4.914.142-3.387-.475-6.654-1.7-9.8-1.234-3.195-2.922-6.128-5.005-8.838-.283-.364-.506-.293-.738.01-.526.708-1.092 1.395-1.567 2.144-1.87 2.932-3.418 6.027-4.318 9.414-.536 2.012-.9 4.075-.9 6.148-.01 1.94.313 3.853.85 5.723.12.435.324.576.758.576l5.582.01zM2.345 31.37H.473c-.303 0-.516-.1-.465-.455l.354-2.154c.12-.84.8-1.264 1.304-1.82.303-.334.657-.607 1-.9.1-.1.212-.202.364-.142.162.06.172.202.182.344.1 1.648.586 3.195 1.385 4.64.212.374.05.506-.324.506l-1.93-.01zm22.538 0h-1.82c-.475-.01-.556-.162-.334-.576.637-1.193 1.112-2.447 1.234-3.812a2.19 2.19 0 0 1 .131-.506c.08-.202-.06-.526.192-.607.253-.07.404.212.576.364l1.284 1.213c.506.404.718.94.78 1.517.07.637.263 1.244.313 1.88.03.374-.08.516-.445.516l-1.9.01zm-10-6.554c-.01-.243.06-.506.1-.8.07-.475-.313-.88-.738-.738-1.072.364-2.012.01-2.943-.435-.495-.243-.495-.253-.576.324-.08.627-.374 1.143-1 1.355s-1.234.1-1.7-.445a1.44 1.44 0 0 1-.182-1.598c.273-.536.96-.95 1.476-.9.637.08.718-.08.566-.718-.202-.87-.233-1.75.192-2.6.293-.576.182-.92-.404-1.224-.142-.07-.283-.12-.425-.182-.556-.233-.9-.86-.78-1.385.13-.556.748-1.042 1.294-1.02.607.02 1.122.495 1.193 1.092.01.12 0 .243.02.364.08.526.506.738 1 .556.9-.334 1.8-.445 2.73-.06.506.212.77.01.738-.526-.06-1.092.657-1.992 1.7-2.134.92-.12 1.86.576 2.103 1.567.273 1.112-1.102 2.397-2.265 2.113-.182-.04-.354-.172-.516.04s-.04.394.06.576c.627 1.122.657 2.275.04 3.377-.384.677-.1 1.092.647 1.082 1.355-.03 2.376 1 2.397 2.295.02 1.355-1.052 2.467-2.366 2.457-1.294-.01-2.346-1.092-2.346-2.467zm1.153-5.066c0-1.416-1.203-2.67-2.58-2.65-1.577.02-2.67 1.153-2.7 2.63-.03 1.395 1.254 2.66 2.65 2.66 1.456-.01 2.63-1.183 2.64-2.64zm-3.55.192c-.02.222-.243.415-.607.384a.5.5 0 0 1-.516-.586c.03-.374.283-.556.627-.546.364.02.526.243.495.748z"/><path d="M13.325 20.346c-.313-.04-.566-.212-.586-.536-.02-.354.233-.566.576-.597s.576.172.586.516-.222.546-.576.617zm1.397 0c-.374-.02-.576-.273-.607-.566-.03-.374.253-.556.597-.576.324-.01.536.182.546.506.02.364-.222.556-.536.637zm22.533-8.7c.494 0 .92.065 1.317.23s.724.343.988.66c.275.27.5.596.626.955a3.31 3.31 0 0 1 .23 1.153c0 .626-.132 1.2-.394 1.647s-.7.823-1.317 1.053v.034a1.87 1.87 0 0 1 .724.343c.197.146.343.343.463.592.132.23.197.463.264.755.066.27.1.546.1.823 0 .165.034.343.034.592s.034.463.065.724l.132.7a1.46 1.46 0 0 0 .264.559h-2.353c-.132-.33-.197-.755-.23-1.2l-.132-1.35c-.065-.56-.264-.988-.527-1.252s-.7-.394-1.283-.394h-2.37v4.212H31.42V11.656zm-.858 4.905c.56 0 .955-.132 1.2-.343s.394-.626.394-1.2c0-.527-.132-.92-.394-1.153s-.7-.343-1.2-.343h-2.58v3.062zm5.763.295c.197-.494.463-.955.823-1.317s.8-.626 1.283-.823 1.053-.297 1.68-.297a4.51 4.51 0 0 1 1.681.297 3.72 3.72 0 0 1 1.283.823c.367.374.648.823.823 1.317.197.494.297 1.086.297 1.712a4.8 4.8 0 0 1-.297 1.712c-.184.48-.464.916-.823 1.283a3.83 3.83 0 0 1-1.283.823c-.494.197-1.053.297-1.68.297a4.51 4.51 0 0 1-1.681-.297 3.72 3.72 0 0 1-1.283-.823 3.83 3.83 0 0 1-.823-1.283c-.197-.494-.297-1.086-.297-1.712s.1-1.2.297-1.712zm1.972 2.633a3.07 3.07 0 0 0 .297.8c.132.23.33.43.592.56.23.132.56.197.92.197s.66-.065.92-.197.463-.33.592-.56.264-.494.297-.8a4.17 4.17 0 0 0 .099-.921 4.17 4.17 0 0 0-.099-.921 3.07 3.07 0 0 0-.297-.8c-.132-.23-.33-.43-.592-.56-.284-.15-.6-.228-.92-.23-.343 0-.66.065-.92.23a1.91 1.91 0 0 0-.592.559c-.132.23-.264.494-.297.8a4.39 4.39 0 0 0 0 1.844zm11-3.456c-.33 0-.626.065-.858.23a1.87 1.87 0 0 0-.559.592c-.132.264-.264.527-.297.823a4.08 4.08 0 0 0-.099.888 3.86 3.86 0 0 0 .099.858 3.07 3.07 0 0 0 .297.8 1.91 1.91 0 0 0 .559.592c.23.163.527.23.858.23.527 0 .92-.132 1.2-.43a2.09 2.09 0 0 0 .527-1.153h2.058c-.132 1.053-.56 1.844-1.2 2.37-.66.56-1.514.823-2.568.823a4.27 4.27 0 0 1-1.612-.297c-.494-.197-.92-.463-1.252-.823s-.626-.8-.8-1.252a4.27 4.27 0 0 1-.297-1.612c-.001-.57.1-1.137.264-1.68a3.48 3.48 0 0 1 .791-1.35c.343-.394.755-.66 1.252-.888a4.53 4.53 0 0 1 1.712-.329 4.61 4.61 0 0 1 1.35.197c.43.132.823.297 1.153.56s.626.56.823.92a3.07 3.07 0 0 1 .36 1.317h-2.106c-.197-.92-.724-1.382-1.647-1.382zm7.307-4.377v5.794l2.7-2.83h2.535l-2.96 2.844 3.293 4.97h-2.6l-2.14-3.5-.823.8v2.7h-2.14v-10.83h2.14zm8.627 8.92c.33.33.8.463 1.382.463.43 0 .823-.1 1.118-.33.33-.23.494-.463.56-.7h1.916c-.297.955-.755 1.612-1.382 2.007s-1.382.592-2.27.592c-.626 0-1.2-.1-1.68-.297a3.36 3.36 0 0 1-1.252-.858c-.33-.364-.592-.8-.8-1.317-.197-.494-.297-1.053-.297-1.68a4.57 4.57 0 0 1 .297-1.647c.197-.494.463-.955.823-1.317a4.03 4.03 0 0 1 1.25-.856 4.27 4.27 0 0 1 1.612-.329c.66 0 1.252.132 1.744.394s.888.592 1.2 1.053a3.84 3.84 0 0 1 .691 1.482c.132.56.197 1.153.165 1.744h-5.66c.065.8.264 1.283.56 1.578zm2.436-4.116c-.264-.297-.66-.43-1.2-.43a2.2 2.2 0 0 0-.858.165 2.54 2.54 0 0 0-.559.429c-.134.166-.235.356-.297.56-.07.216-.1.343-.1.527h3.487a1.99 1.99 0 0 0-.494-1.252zm8.262-1.808v1.448h-1.578v3.85c0 .343.065.592.197.724s.343.197.724.197h.343c.1 0 .23-.034.33-.034v1.68c-.197.034-.394.065-.592.065h-.66a8.69 8.69 0 0 1-.955-.065 2.04 2.04 0 0 1-.791-.264c-.23-.132-.394-.33-.527-.56s-.197-.56-.197-.955v-4.6h-1.316v-1.457h1.317v-2.338h2.14v2.338h1.547zm4.607-2.995l2.535 7.44h.034l2.4-7.44h3.357v10.83h-2.225v-7.67h-.034l-2.665 7.67h-1.84l-2.665-7.603h-.026v7.603h-2.24v-10.83zm17.872 10.433c-.724.43-1.578.626-2.633.626-.823 0-1.578-.132-2.238-.43a5.16 5.16 0 0 1-1.679-1.185c-.463-.494-.8-1.086-1.053-1.777a6.89 6.89 0 0 1-.36-2.206c-.002-.76.12-1.517.36-2.238a5.19 5.19 0 0 1 1.053-1.81 4.53 4.53 0 0 1 1.68-1.2c.66-.28 1.415-.43 2.238-.43s1.578.132 2.238.43a5.17 5.17 0 0 1 1.681 1.201c.458.535.815 1.15 1.053 1.8.239.722.361 1.477.36 2.238a6.95 6.95 0 0 1-.36 2.206 4.79 4.79 0 0 1-1.053 1.777l1.35 1.2-1.118 1.153zm-.343-2.504c.197-.264.343-.626.494-1.02s.197-.888.197-1.482c0-.463-.065-.92-.165-1.382-.1-.43-.264-.858-.494-1.2a2.23 2.23 0 0 0-.921-.823c-.343-.197-.823-.297-1.35-.297s-.988.1-1.35.297a2.76 2.76 0 0 0-.921.823c-.23.343-.394.755-.494 1.2a6.2 6.2 0 0 0-.165 1.382c0 .463.065.888.165 1.317s.264.823.494 1.153c.233.348.55.63.92.823.343.197.823.297 1.35.297.264 0 .463 0 .56-.034s.264-.065.394-.1l-1.02-.92 1.118-1.2z"/></g></symbol></svg>